{"glyphs":{":":{"x_min":0,"x_max":301,"ha":301,"o":"m 133 0 q 125 -2 123 -2 l 110 -3 q 51 -3 51 42 l 51 60 q 51 94 79 126 q 97 147 134 147 l 150 147 q 172 147 192 133 q 202 126 202 109 l 204 97 l 204 89 l 203 87 q 203 84 203 81 q 202 77 202 74 q 202 49 175 18 q 159 0 133 0 z m 269 400 q 268 396 268 393 q 268 357 237 331 q 217 313 182 313 l 172 313 q 116 313 116 359 l 116 377 q 117 382 117 385 q 117 416 146 445 q 164 462 192 462 l 197 463 l 208 464 l 210 464 q 238 464 258 449 q 269 442 269 417 z"},"$":{"x_min":0,"x_max":533,"ha":533,"o":"m 359 166 l 359 178 q 359 208 337 231 q 315 253 307 253 l 306 253 q 295 253 295 230 q 292 216 292 213 q 292 211 282 164 q 271 117 266 99 q 260 82 260 74 l 260 70 q 260 67 263 67 l 267 67 l 269 67 q 300 67 329 96 q 358 125 358 154 z m 310 567 l 310 572 q 310 574 306 574 l 299 573 q 268 573 243 543 q 219 514 219 488 l 219 473 q 219 449 239 428 q 259 408 268 408 l 269 408 q 276 408 276 420 q 281 438 282 446 q 283 453 285 462 q 287 472 287 473 z m 188 -78 q 164 -78 164 -50 q 164 -22 156 -11 q 148 -1 112 16 q 44 47 44 101 q 44 118 57 135 q 70 153 84 153 q 90 153 126 115 q 162 77 194 77 q 212 77 223 109 q 248 186 248 239 q 248 271 210 304 q 156 351 139 381 q 122 411 122 443 q 122 513 167 564 q 206 608 276 625 q 313 634 318 637 q 334 645 348 672 q 361 700 377 700 q 399 700 404 671 q 408 653 442 628 q 500 586 500 556 q 500 535 490 520 q 479 505 466 505 q 453 505 427 534 q 401 563 375 563 q 361 563 352 542 q 324 477 324 417 q 324 389 370 354 q 461 285 461 202 q 461 166 445 130 q 413 53 333 26 q 318 21 284 15 q 250 8 238 -1 q 237 -2 217 -48 q 205 -78 188 -78 z"},"?":{"x_min":0,"x_max":472,"ha":472,"o":"m 208 140 q 212 139 215 139 q 233 139 246 128 q 259 117 259 95 l 259 78 q 259 39 234 17 q 209 -4 176 -4 l 161 -4 q 139 -4 120 9 q 109 17 109 40 l 109 58 q 110 62 110 65 q 110 89 131 114 q 152 139 182 139 l 195 140 z m 472 551 l 472 533 q 472 441 361 353 q 351 345 322 324 q 292 303 284 293 q 276 284 271 264 l 258 221 q 245 206 227 206 l 211 206 q 175 206 175 257 q 175 298 195 331 q 215 363 256 398 q 297 434 318 465 q 338 497 338 537 q 338 558 322 569 q 306 581 283 581 q 260 581 223 556 q 186 531 163 531 q 130 531 130 573 l 130 587 q 130 622 170 648 q 226 684 292 684 l 312 684 q 376 684 424 645 q 472 606 472 551 z"},"<":{"x_min":0,"x_max":572,"ha":572,"o":"m 491 30 q 459 30 109 220 q 76 238 76 258 l 76 268 q 76 312 107 328 q 477 523 513 523 q 527 523 527 492 l 527 483 q 527 446 485 419 q 462 405 332 345 q 201 285 201 276 q 201 268 329 204 q 458 140 465 135 q 505 108 505 69 q 505 30 491 30 z"},"'":{"x_min":0,"x_max":265,"ha":265,"o":"m 152 593 q 155 613 155 623 q 155 670 169 685 q 184 699 230 699 l 234 699 q 276 699 276 682 l 276 678 q 276 626 212 447 q 200 415 171 415 l 161 415 q 140 415 140 429 l 140 436 l 141 439 l 142 462 q 144 474 144 483 q 145 492 146 499 q 146 505 146 509 l 147 524 l 149 543 q 149 547 149 551 l 151 577 z"},"=":{"x_min":0,"x_max":574,"ha":574,"o":"m 539 195 q 538 184 538 179 q 538 149 526 145 q 514 141 391 141 l 96 141 q 65 141 65 153 l 65 173 l 66 179 l 66 189 q 67 195 67 206 q 67 216 74 222 q 82 227 114 227 l 491 227 q 539 227 539 215 z m 548 401 l 548 392 l 547 386 l 547 381 q 547 345 540 339 q 532 332 489 332 l 122 332 q 74 332 74 348 l 74 354 l 74 358 l 74 364 l 75 385 q 75 412 90 415 q 104 418 273 418 l 516 418 q 548 418 548 401 z"},"a":{"x_min":0,"x_max":542,"ha":542,"o":"m 311 391 l 303 391 l 299 390 q 255 390 208 320 q 161 249 161 171 l 161 148 q 161 120 173 104 q 186 87 200 87 l 210 87 q 228 87 256 107 q 285 127 306 163 q 360 253 360 334 l 360 350 q 360 366 348 378 q 336 391 311 391 z m 410 454 q 438 462 461 462 q 483 462 495 449 q 506 437 506 422 l 506 414 q 506 401 480 300 q 454 199 454 154 q 454 132 472 115 q 490 99 490 73 q 490 47 459 24 q 428 2 383 2 l 375 2 q 348 2 336 14 q 323 27 317 50 q 310 73 302 73 q 293 73 267 53 q 207 7 139 7 q 91 7 59 45 q 27 83 27 144 q 27 205 51 264 q 74 322 111 367 q 147 413 195 438 q 243 464 293 464 q 314 464 344 454 q 373 444 376 444 z"},"L":{"x_min":0,"x_max":545,"ha":545,"o":"m 404 1 l 318 4 l 278 4 l 224 4 q 80 4 56 10 q 33 16 33 43 q 33 45 56 82 q 79 119 93 168 q 106 217 140 381 q 174 545 174 560 q 174 575 163 598 q 152 620 152 637 q 152 654 170 668 q 188 682 217 682 l 229 682 l 242 681 l 254 681 q 316 681 341 676 q 367 670 367 647 q 367 640 329 585 q 311 561 301 522 q 291 483 279 421 q 266 358 244 253 q 222 147 222 129 q 222 90 308 90 q 355 90 413 120 q 472 150 493 150 q 510 150 510 125 q 510 68 489 34 q 468 1 427 1 z"},"3":{"x_min":0,"x_max":546,"ha":546,"o":"m 218 -18 l 203 -18 q 129 -18 80 6 q 30 29 30 69 q 30 99 43 112 q 56 125 76 125 q 96 125 139 97 q 181 70 228 70 q 275 70 312 105 q 349 140 349 195 q 349 233 330 256 q 311 278 281 287 q 236 296 223 304 q 209 312 209 338 q 209 363 264 383 q 319 403 349 433 q 379 463 379 510 q 379 532 358 547 q 336 562 309 562 q 282 562 226 538 q 169 515 164 515 q 139 515 139 547 q 139 558 154 583 q 168 608 199 626 q 256 658 347 658 l 363 658 q 433 658 473 624 q 514 590 514 542 q 514 462 440 399 q 394 360 394 354 q 394 353 419 333 q 445 312 463 283 q 480 254 480 208 q 480 116 404 49 q 366 15 316 -1 q 266 -18 218 -18 z"},";":{"x_min":0,"x_max":301,"ha":301,"o":"m 140 152 l 157 152 q 204 152 204 117 l 204 101 q 204 73 188 28 q 172 -18 137 -62 q 102 -107 72 -125 q 42 -143 23 -143 l 20 -143 q 4 -143 4 -124 l 4 -122 q 4 -114 22 -98 q 85 -40 85 0 q 85 5 80 15 q 65 44 65 77 q 65 110 85 131 q 104 152 140 152 z m 273 404 q 272 397 272 392 q 272 358 247 336 q 222 315 189 315 l 174 315 q 151 315 132 329 q 122 335 122 353 l 121 368 l 121 373 q 121 411 151 446 q 167 465 205 465 l 218 465 q 249 465 261 453 q 273 440 273 417 z"},"J":{"x_min":0,"x_max":461,"ha":461,"o":"m 408 404 q 351 140 320 81 q 289 21 230 -13 q 171 -48 112 -48 q 53 -48 21 -28 q -11 -8 -11 23 q -11 54 12 73 q 35 93 53 93 q 70 93 89 87 q 107 81 123 81 q 188 81 232 209 q 250 258 268 384 q 286 509 286 530 q 286 550 268 579 q 250 608 250 631 q 250 654 271 666 q 301 681 370 681 l 405 681 q 439 681 459 670 q 479 659 479 643 q 479 625 465 593 l 456 576 q 436 536 408 404 z"},"V":{"x_min":0,"x_max":631,"ha":631,"o":"m 699 644 q 699 623 651 572 q 626 546 483 300 q 340 53 331 41 q 303 4 259 4 q 235 4 223 14 q 210 23 206 41 q 202 59 198 95 l 195 127 q 194 144 192 159 q 181 243 177 271 l 171 318 q 165 365 159 421 q 152 478 147 508 q 142 538 121 573 q 100 608 100 623 q 100 651 137 667 q 151 673 200 673 q 250 673 267 668 q 300 659 300 632 q 300 630 292 602 q 285 573 285 539 q 285 338 313 193 q 315 183 321 183 l 328 191 q 386 272 499 509 q 536 588 536 632 q 536 656 556 666 q 575 675 627 675 l 642 675 q 699 675 699 644 z"},"\"":{"x_min":0,"x_max":445,"ha":445,"o":"m 230 701 q 237 700 241 700 q 265 700 265 687 l 265 677 q 265 627 201 447 q 190 418 165 418 l 148 418 q 130 418 130 432 l 130 442 l 132 465 l 133 480 q 134 488 135 496 q 136 503 136 507 l 137 523 l 139 542 l 142 587 q 143 599 144 606 q 144 613 146 628 q 147 643 147 646 q 147 673 160 687 q 172 701 213 701 z m 456 684 l 456 677 q 456 614 390 443 q 380 417 351 417 q 321 417 321 435 l 323 465 l 324 480 q 326 496 327 508 q 328 519 328 523 l 330 542 l 333 603 l 335 618 l 336 628 q 337 636 337 639 q 337 677 353 689 q 368 701 404 701 l 421 701 q 456 701 456 684 z"},"7":{"x_min":0,"x_max":544,"ha":544,"o":"m 450 655 l 501 654 q 564 654 564 625 q 564 594 521 524 q 506 500 487 470 l 466 438 q 341 244 301 166 q 261 88 246 56 q 231 24 224 13 q 203 -16 153 -16 q 104 -16 104 11 q 104 51 254 275 q 405 498 405 516 q 405 534 385 540 q 364 547 319 547 q 273 547 247 541 q 220 535 188 525 q 155 515 141 515 q 121 515 121 551 q 121 587 147 624 q 173 660 216 660 l 298 655 l 399 655 z"},"S":{"x_min":0,"x_max":544,"ha":544,"o":"m 31 99 q 31 139 47 161 q 62 183 79 183 q 96 183 124 149 q 182 80 244 80 l 244 80 q 306 80 338 106 q 370 133 370 173 q 370 212 337 242 q 322 256 251 300 q 181 344 154 377 q 118 422 118 493 q 118 530 136 566 q 175 645 266 673 q 306 686 348 686 q 470 686 517 664 q 543 651 543 613 l 543 600 q 543 559 522 532 q 512 520 503 520 q 481 520 449 552 q 417 584 398 594 q 379 603 340 603 q 300 603 271 578 q 242 553 242 517 q 242 481 271 454 q 288 438 363 394 q 438 350 467 309 q 496 268 497 217 q 497 117 427 56 q 359 -4 248 -4 q 221 -4 188 3 q 154 11 112 17 q 70 22 64 25 q 31 41 31 99 z"},"}":{"x_min":0,"x_max":386,"ha":386,"o":"m 347 279 q 347 250 306 233 q 266 216 253 190 q 240 163 225 52 q 210 -58 185 -94 q 159 -130 117 -151 q 75 -172 33 -172 l 9 -172 q -11 -172 -11 -162 q -11 -136 36 -102 q 83 -68 96 -46 q 109 -23 121 60 q 132 144 145 177 q 164 228 209 253 q 234 268 234 274 l 229 280 l 212 293 q 201 304 191 323 q 181 341 181 374 q 181 406 196 472 q 210 537 210 569 q 210 602 179 636 q 147 670 147 699 q 147 714 178 714 q 250 714 285 684 q 320 653 320 581 q 320 551 302 479 q 283 406 283 374 q 283 341 304 322 q 347 282 347 279 z"},"Z":{"x_min":0,"x_max":595,"ha":595,"o":"m 448 2 l 417 2 l 383 3 l 219 4 q 52 4 39 6 q 16 11 16 34 q 16 58 45 97 q 74 136 251 350 q 428 565 428 577 q 428 596 367 596 q 306 596 272 586 q 239 576 200 559 q 160 541 150 541 q 125 541 125 572 q 125 622 153 651 q 180 681 220 681 l 236 680 q 277 678 325 678 l 433 678 q 573 678 596 675 q 619 672 619 653 q 619 619 575 562 q 567 552 491 460 q 212 123 211 107 q 211 87 279 87 q 347 87 410 105 q 424 109 466 127 q 508 145 518 145 q 542 145 542 109 q 542 73 515 38 q 489 2 448 2 z"},"x":{"x_min":0,"x_max":518,"ha":518,"o":"m 80 98 q 107 112 153 160 q 199 208 199 241 q 199 273 162 331 q 148 352 116 376 q 84 400 84 414 q 84 429 103 437 q 160 464 211 464 q 234 464 253 440 q 261 430 280 388 q 299 346 308 346 q 316 346 348 391 q 380 437 399 452 q 417 468 447 468 q 478 468 505 450 q 517 442 517 429 q 517 402 473 385 q 429 369 394 334 q 336 278 336 252 q 336 206 382 136 q 398 113 430 94 q 462 76 462 59 q 462 42 415 24 q 367 7 329 7 q 306 7 287 34 q 282 41 258 88 q 235 134 225 134 q 215 134 179 83 q 144 32 127 17 q 111 2 86 2 l 75 2 q 38 2 20 13 q 3 24 3 30 q 3 49 29 72 z"},")":{"x_min":0,"x_max":367,"ha":367,"o":"m 317 394 l 317 372 q 317 209 228 47 q 181 -38 112 -107 q 43 -176 0 -176 q -24 -176 -24 -159 q -24 -146 11 -108 q 46 -71 80 -23 q 113 24 146 103 q 208 249 208 415 q 208 416 208 417 q 208 520 169 617 q 149 667 149 680 q 149 710 180 710 q 208 710 229 684 q 250 658 274 601 q 317 502 317 394 z"},"&":{"x_min":0,"x_max":716,"ha":716,"o":"m 279 85 l 289 85 l 292 86 q 323 86 349 103 q 375 119 375 128 l 375 130 l 375 133 q 375 135 341 186 q 307 236 287 271 q 267 305 260 305 l 255 305 l 252 304 q 232 304 206 270 q 179 236 179 202 l 179 184 q 179 148 207 117 q 234 86 272 86 z m 319 518 q 319 515 320 508 q 320 501 320 494 q 320 486 338 450 q 343 441 349 441 q 375 441 411 491 q 435 525 435 554 l 435 565 q 435 584 423 598 q 412 612 394 612 l 385 612 q 361 612 341 588 q 320 564 320 542 q 319 537 319 535 l 318 523 l 318 521 z m 255 7 q 114 7 72 97 q 55 132 55 178 q 55 270 156 343 q 216 387 216 404 q 216 422 211 458 q 205 494 205 519 q 205 583 252 632 q 298 680 362 680 l 376 680 q 434 680 470 644 q 506 607 506 546 q 506 513 488 471 q 470 430 465 412 q 461 395 452 368 q 443 342 443 329 q 443 315 457 305 q 470 295 478 295 q 491 295 504 304 q 553 334 599 334 q 646 334 646 309 q 646 305 606 236 q 567 167 567 142 q 567 117 602 83 q 637 48 637 38 q 637 29 624 19 q 611 9 583 9 q 556 9 523 22 q 489 35 470 35 q 451 35 357 21 q 263 7 255 7 z"},"_":{"x_min":0,"x_max":517,"ha":517,"o":"m 25 -73 l 66 -73 l 72 -74 l 241 -75 q 497 -75 497 -82 l 497 -92 q 496 -103 496 -115 q 496 -126 492 -131 q 489 -136 458 -136 l 435 -136 l 429 -136 l 371 -136 l 359 -135 l 307 -135 l 295 -135 l 243 -135 l 226 -134 q -25 -134 -25 -123 l -25 -117 l -25 -112 l -24 -101 q -23 -96 -23 -90 q -23 -73 25 -73 z"},"v":{"x_min":0,"x_max":507,"ha":507,"o":"m 58 411 q 58 463 157 463 q 200 463 217 421 q 230 388 230 300 l 231 278 q 231 266 231 254 l 232 243 q 232 231 232 220 q 232 140 246 140 q 252 140 268 156 q 311 202 342 258 q 373 315 382 353 q 394 423 401 434 q 422 466 475 466 q 507 466 507 425 l 507 416 q 507 394 486 350 q 436 243 375 158 q 315 74 261 29 q 240 11 210 11 l 201 11 q 178 11 162 23 q 146 35 143 46 q 140 57 136 107 q 122 271 114 304 q 105 338 89 352 q 58 378 58 402 z"},"O":{"x_min":0,"x_max":721,"ha":721,"o":"m 323 79 l 336 79 q 372 79 411 105 q 488 157 528 294 q 551 369 551 427 l 551 456 q 551 526 521 564 q 491 603 446 603 l 432 603 q 395 603 357 576 q 281 522 239 387 q 216 313 216 248 l 216 233 q 216 164 245 121 q 273 79 323 79 z m 697 452 l 697 430 q 697 352 662 267 q 626 182 573 123 q 519 64 450 29 q 381 -5 307 -5 l 295 -5 q 196 -5 133 58 q 71 120 71 232 l 71 243 q 71 322 104 407 q 136 493 195 559 q 312 688 473 688 l 474 688 q 573 688 634 625 q 667 589 682 542 q 697 495 697 452 z"},"(":{"x_min":0,"x_max":367,"ha":367,"o":"m 250 437 q 186 287 186 128 q 186 6 227 -89 q 245 -131 245 -151 q 245 -176 217 -176 q 188 -176 167 -152 q 146 -127 120 -67 q 77 33 77 139 l 77 161 q 77 326 165 485 q 215 577 284 644 q 354 711 392 711 q 417 711 417 696 q 417 681 381 640 q 344 599 332 583 q 283 516 250 437 z"},"C":{"x_min":0,"x_max":629,"ha":629,"o":"m 137 68 q 101 104 83 153 q 66 201 66 247 l 66 279 q 66 351 98 429 q 164 590 305 652 q 367 679 436 679 l 451 679 q 476 679 513 673 q 550 667 581 667 q 612 667 623 655 q 641 635 641 604 l 641 592 q 641 552 628 532 q 615 512 601 512 q 587 512 552 541 q 518 569 492 582 q 466 594 427 594 q 388 594 349 570 q 271 522 230 409 q 207 343 207 283 q 207 188 247 139 q 288 91 358 91 q 404 91 469 119 q 533 147 546 147 q 572 147 572 117 q 572 101 556 76 q 540 52 499 30 q 440 -1 323 -1 q 206 -1 137 68 z"},"W":{"x_min":0,"x_max":895,"ha":895,"o":"m 807 634 q 824 670 886 670 q 922 670 936 659 q 950 647 950 631 q 950 614 927 579 l 914 561 q 896 538 889 525 q 882 513 779 298 q 676 83 667 71 q 648 41 617 24 l 598 16 l 579 16 q 563 16 549 31 q 535 45 528 73 q 521 101 508 266 q 496 432 486 432 q 481 432 407 284 q 333 135 313 104 q 263 22 226 22 q 210 22 193 39 q 176 56 170 86 q 164 117 154 270 l 151 322 q 150 347 148 396 q 146 445 142 479 q 139 512 125 550 q 110 587 110 603 l 110 619 q 110 639 135 654 q 159 670 198 670 q 237 670 264 658 q 292 647 292 627 q 292 607 288 586 l 279 544 l 276 521 q 275 500 275 366 q 275 232 290 232 q 305 232 381 399 q 406 455 422 495 l 439 541 q 450 568 458 585 l 468 606 q 496 653 542 653 q 574 653 587 647 q 601 640 608 617 q 614 594 623 409 q 631 224 639 224 q 648 224 704 355 q 786 547 795 582 l 800 601 q 805 630 807 634 z"},"A":{"x_min":0,"x_max":651,"ha":651,"o":"m 346 273 l 369 273 q 401 273 401 291 l 401 308 l 400 312 q 400 315 400 318 l 400 322 l 400 329 l 399 333 l 399 340 l 396 401 q 396 529 384 529 q 383 529 361 483 q 338 438 320 399 q 302 360 279 321 q 256 282 256 280 q 256 274 323 274 z m 522 21 q 496 8 441 8 q 386 8 386 31 q 386 33 392 50 q 405 86 405 129 q 405 171 378 183 q 359 191 289 191 q 218 191 205 182 q 185 166 162 94 q 140 22 139 21 q 127 7 92 7 q 56 7 41 18 q 13 37 13 60 q 13 83 37 105 q 79 144 200 364 q 268 486 302 554 q 337 623 344 632 q 378 686 448 686 q 485 686 496 653 q 500 640 517 453 q 533 265 540 212 q 547 158 563 131 q 579 103 579 90 q 579 51 522 21 z"},"f":{"x_min":0,"x_max":349,"ha":349,"o":"m 387 713 q 461 713 461 676 l 461 665 q 461 652 448 633 q 435 614 414 614 q 408 614 390 620 q 373 627 368 628 q 362 629 356 629 q 337 629 321 615 q 287 585 287 514 q 287 485 322 471 q 357 457 357 437 q 357 426 309 388 q 261 351 247 311 q 232 271 204 135 q 175 -1 151 -45 q 126 -89 104 -104 q 83 -120 49 -120 l 37 -120 q 1 -120 -15 -104 q -21 -99 -21 -87 q -21 -75 21 -28 q 46 -1 64 54 q 107 186 107 299 l 100 388 l 103 437 q 104 452 134 490 q 164 528 186 578 q 226 670 309 701 q 341 713 374 713 z"},"Q":{"x_min":0,"x_max":722,"ha":722,"o":"m 214 266 l 214 237 q 214 175 239 139 q 271 89 313 89 l 319 89 q 348 89 373 113 q 450 186 485 239 q 504 268 519 324 q 534 381 534 425 l 534 455 q 534 520 506 555 q 479 590 436 590 l 423 590 q 389 590 352 565 q 315 540 286 494 q 256 448 235 380 q 214 313 214 266 z m 668 418 q 668 326 626 240 q 596 178 553 129 q 479 45 479 36 q 479 16 508 -5 q 537 -26 585 -48 q 633 -70 633 -78 q 633 -94 606 -102 q 560 -116 513 -116 l 501 -116 q 453 -116 390 -89 q 197 -4 172 24 q 148 52 140 101 q 114 271 114 307 l 114 336 q 114 481 189 566 q 251 635 299 661 q 347 686 413 686 q 479 686 524 669 q 620 634 654 524 q 668 478 668 418 z"},"w":{"x_min":0,"x_max":738,"ha":738,"o":"m 486 285 l 487 212 q 487 155 500 155 q 521 155 555 213 q 590 271 617 344 q 644 417 648 423 q 667 454 702 454 q 723 454 723 423 q 723 393 690 302 q 657 212 611 136 q 565 60 538 37 q 510 14 481 14 l 467 14 q 438 14 407 80 q 395 106 380 172 q 365 238 359 238 q 357 238 304 165 q 250 92 233 75 q 201 44 171 44 q 132 44 123 91 q 73 322 73 393 q 73 418 89 440 q 105 461 130 461 q 187 461 205 432 q 217 411 217 321 l 216 283 l 217 247 q 217 155 234 155 q 250 155 307 270 q 324 304 346 358 q 369 411 375 421 q 393 450 445 450 q 470 450 477 429 q 486 396 486 285 z"},"-":{"x_min":0,"x_max":351,"ha":351,"o":"m 327 295 l 327 289 q 327 223 301 211 q 292 207 166 207 l 77 207 l 66 207 l 59 207 q 45 207 45 216 l 45 222 q 45 285 72 299 q 80 303 204 303 l 304 304 l 317 304 q 327 304 327 295 z"},"E":{"x_min":0,"x_max":583,"ha":583,"o":"m 595 619 l 595 603 q 595 556 563 556 q 557 556 534 567 q 512 578 485 585 q 458 593 393 593 q 346 593 324 560 q 283 498 283 437 q 283 414 339 414 q 362 414 399 427 q 437 439 445 439 q 454 439 467 430 q 479 421 479 396 q 479 333 455 291 q 442 270 424 270 q 406 270 376 285 q 346 299 307 299 q 269 299 251 277 q 225 242 225 160 q 225 107 241 98 q 258 88 309 87 q 378 87 458 118 q 490 129 497 129 q 522 129 522 104 q 522 53 484 23 q 458 3 387 3 l 196 3 q 111 3 73 12 q 35 21 35 44 q 35 58 70 106 q 87 129 102 187 q 173 466 173 562 q 173 577 162 599 q 150 622 150 638 q 150 657 179 665 q 224 677 378 677 l 417 678 l 492 678 q 563 678 579 668 q 595 657 595 619 z"},"s":{"x_min":0,"x_max":433,"ha":433,"o":"m 198 -5 l 174 -5 q 100 -5 52 16 q 19 30 19 60 q 19 89 33 108 q 47 126 67 126 q 88 126 121 98 q 153 69 191 69 q 229 69 248 86 q 266 103 266 124 q 266 145 244 163 q 234 170 183 200 q 131 230 107 258 q 83 286 83 327 q 83 403 146 444 q 198 478 274 478 q 350 478 390 460 q 417 448 417 420 q 417 393 402 375 q 387 357 368 357 q 349 357 319 381 q 289 405 262 405 q 235 405 215 393 q 195 381 195 354 q 195 328 261 292 q 325 257 353 228 q 380 199 380 159 q 380 83 326 39 q 272 -5 198 -5 z"},">":{"x_min":0,"x_max":572,"ha":572,"o":"m 86 28 q 76 28 76 63 l 76 72 q 76 107 122 134 q 149 150 276 208 q 403 267 403 271 q 403 282 274 347 q 145 411 134 418 q 97 442 97 474 q 97 521 115 521 q 123 521 156 504 q 427 369 489 333 q 526 312 526 289 q 526 243 508 230 q 507 229 393 174 q 279 119 246 104 q 213 88 157 58 q 101 28 86 28 z"},"l":{"x_min":0,"x_max":300,"ha":300,"o":"m 261 714 l 276 714 q 300 714 300 683 l 300 674 q 300 656 248 426 q 196 196 196 155 q 196 115 214 94 q 232 73 232 62 q 232 34 200 20 q 153 -1 101 -1 q 81 -1 67 13 q 54 28 54 60 l 54 77 q 54 83 107 321 q 161 558 161 584 q 161 610 149 632 q 137 654 137 674 q 137 693 164 704 q 190 714 261 714 z"},"8":{"x_min":0,"x_max":551,"ha":551,"o":"m 358 198 l 358 204 q 358 239 331 269 q 304 300 273 300 l 267 300 q 240 300 204 255 q 167 210 167 159 l 167 148 q 167 115 187 92 q 207 69 237 69 l 247 69 q 290 69 323 106 q 356 144 356 181 l 357 188 z m 412 521 l 412 539 q 412 562 395 581 q 378 600 355 600 l 340 600 q 305 600 276 568 q 248 536 248 499 l 248 487 q 248 458 270 432 q 293 406 320 406 l 329 406 q 354 406 383 448 q 412 489 412 521 z m 491 443 q 475 421 440 395 q 405 368 405 365 q 405 362 428 336 q 452 311 467 283 q 482 255 482 212 q 482 128 408 60 q 375 28 327 9 q 279 -10 234 -10 l 211 -10 q 140 -10 93 32 q 46 73 46 134 q 46 249 166 324 q 194 341 194 345 q 193 354 175 374 q 131 419 131 484 q 131 520 152 558 q 173 597 210 626 q 277 679 358 679 l 380 679 q 440 679 484 643 q 527 607 527 551 l 527 540 q 527 493 491 443 z"},"\\":{"x_min":0,"x_max":443,"ha":443,"o":"m 349 -61 q 325 -61 316 -50 q 308 -39 296 -1 q 94 623 94 686 q 94 702 135 702 l 143 702 q 174 702 187 666 q 274 403 382 24 q 397 -29 397 -42 q 397 -61 349 -61 z"},"e":{"x_min":0,"x_max":491,"ha":491,"o":"m 236 278 l 254 281 q 301 281 337 307 q 359 323 359 345 l 359 354 q 357 361 357 369 q 357 377 344 390 q 332 403 315 403 l 300 403 q 269 403 229 364 q 189 324 189 293 l 189 288 q 189 275 204 275 l 207 275 l 209 275 l 220 276 q 231 278 236 278 z m 332 478 l 352 478 q 404 478 438 446 q 472 414 472 372 q 472 331 460 302 q 448 272 427 257 q 394 233 259 214 q 205 206 191 201 q 165 192 165 157 q 165 123 190 103 q 215 83 250 83 q 285 83 340 105 q 395 127 411 127 q 430 127 430 101 q 430 91 413 70 q 397 48 346 23 q 295 -1 229 -1 l 208 -1 q 137 -1 90 44 q 43 90 43 163 l 43 184 q 43 225 66 282 q 90 339 135 385 q 179 432 235 455 q 290 478 332 478 z"},"b":{"x_min":0,"x_max":544,"ha":544,"o":"m 236 76 l 244 76 l 248 77 q 268 77 293 94 q 319 112 342 150 q 389 228 389 312 l 389 315 q 389 347 378 367 q 367 388 343 388 l 336 388 q 319 388 291 370 q 263 352 244 318 q 189 221 189 137 l 189 129 q 189 106 203 91 q 216 76 236 76 z m 170 17 l 122 5 q 90 5 71 19 q 52 33 52 59 q 52 84 71 152 q 90 221 124 388 q 157 556 157 578 q 157 600 147 619 q 137 637 137 654 q 137 680 163 693 q 188 707 259 707 q 280 707 288 698 q 295 688 295 666 q 295 644 273 564 q 250 483 250 475 q 250 437 277 437 q 281 437 313 445 q 346 454 370 454 q 427 454 466 413 q 505 373 505 304 l 505 292 q 505 242 481 183 q 458 124 424 84 q 355 3 256 3 l 246 3 z"},"%":{"x_min":0,"x_max":803,"ha":803,"o":"m 681 213 l 681 227 q 681 254 670 265 q 659 276 649 276 l 642 276 q 613 276 590 234 q 559 176 559 134 q 558 128 558 125 l 557 114 l 557 100 q 557 73 567 61 q 578 49 591 49 l 593 49 l 596 49 q 625 49 647 92 q 680 151 680 198 z m 322 554 l 322 565 q 322 593 311 605 q 301 617 289 617 l 281 617 q 253 617 226 566 q 199 516 199 471 l 198 465 l 197 454 l 197 439 q 197 414 208 402 q 218 390 232 390 l 235 390 q 265 390 292 441 q 320 492 320 540 z m 656 338 l 672 338 q 711 338 741 308 q 771 278 771 222 l 771 216 q 771 180 756 136 q 742 93 714 60 q 654 -13 582 -13 l 571 -13 l 566 -13 q 523 -13 495 18 q 466 49 466 98 l 466 109 l 467 115 q 467 151 484 197 q 501 242 530 274 q 559 307 592 323 q 626 338 656 338 z m 727 660 q 727 632 264 48 q 218 -9 191 -9 l 182 -9 q 153 -9 153 -2 q 153 10 633 636 q 661 672 690 672 l 699 672 q 727 672 727 666 z m 412 568 l 412 557 q 412 517 395 472 q 360 383 287 344 q 255 328 223 328 l 207 328 q 167 328 137 357 q 107 387 107 434 l 107 456 q 107 486 122 530 q 136 573 165 608 q 193 642 228 661 q 264 679 296 679 l 312 679 q 354 679 383 648 q 412 617 412 568 z"},"m":{"x_min":0,"x_max":812,"ha":812,"o":"m 757 333 q 757 311 740 215 q 723 120 723 57 q 723 27 666 27 q 639 27 624 61 q 609 94 609 129 q 609 164 618 216 q 628 268 628 291 q 628 313 617 335 q 605 357 583 357 q 550 357 509 271 q 483 216 464 140 q 445 63 434 46 q 415 19 349 19 l 329 19 q 302 19 302 47 q 302 59 329 172 q 356 286 356 314 q 356 341 349 354 q 342 366 323 366 q 305 366 284 353 q 221 310 192 196 q 170 108 158 82 q 131 23 102 23 q 93 23 75 43 q 58 62 58 86 l 58 104 q 58 118 71 186 q 84 253 84 305 q 84 357 113 399 q 142 440 165 440 q 200 440 219 415 q 239 390 240 390 q 242 390 299 423 q 357 456 393 456 l 413 456 q 449 456 479 422 q 510 388 515 388 q 521 388 569 417 q 618 447 655 447 q 709 447 733 416 q 757 385 757 333 z"},"#":{"x_min":0,"x_max":568,"ha":568,"o":"m 243 271 l 249 271 l 251 271 l 285 273 q 329 273 338 285 q 348 296 354 324 q 362 361 369 378 q 377 396 377 401 q 377 406 341 406 l 330 406 q 283 406 275 391 q 239 326 239 276 l 239 272 q 239 271 243 271 z m 427 293 q 427 281 460 278 q 493 275 500 268 q 506 261 506 240 q 506 218 488 206 q 481 200 445 196 q 408 191 394 173 q 387 165 365 97 q 344 30 335 20 q 326 10 297 10 q 269 10 269 25 q 269 36 288 94 q 307 152 307 166 q 307 181 300 184 q 293 188 258 188 q 222 188 216 178 q 209 169 193 111 q 177 52 169 36 q 154 6 123 6 l 107 6 q 90 6 90 18 q 90 29 109 84 q 128 140 128 158 q 128 177 94 188 q 61 200 61 215 q 61 251 83 264 q 86 266 121 272 q 156 278 167 290 q 190 313 190 375 q 190 394 168 398 q 130 406 127 408 q 115 415 115 438 q 115 461 137 473 q 145 478 177 483 q 210 488 222 499 q 234 510 254 575 q 273 640 278 647 q 292 666 331 666 q 351 666 351 646 q 351 643 343 616 l 333 584 q 313 518 313 505 q 313 489 378 489 q 404 489 412 508 q 414 514 420 539 l 429 571 q 448 637 457 650 q 466 663 497 663 q 528 663 528 652 q 528 641 511 590 q 494 538 494 515 q 494 498 526 488 q 559 478 559 454 q 559 431 546 420 q 534 409 501 405 q 468 402 458 394 q 427 370 427 293 z"},",":{"x_min":0,"x_max":288,"ha":288,"o":"m 140 147 l 148 147 q 177 147 193 135 q 200 129 200 107 l 200 99 q 200 36 151 -45 q 127 -86 86 -118 q 46 -150 24 -150 l 17 -150 q 1 -150 1 -128 q 1 -121 19 -104 q 81 -46 81 -10 q 81 -3 75 10 q 62 39 62 74 q 62 109 82 128 q 103 147 140 147 z"},"n":{"x_min":0,"x_max":564,"ha":564,"o":"m 379 327 q 379 377 333 377 q 322 377 302 364 q 267 340 241 292 q 216 243 189 145 q 162 48 158 42 q 137 14 106 14 q 75 14 59 27 q 42 40 42 50 l 42 60 q 42 83 67 168 q 92 252 92 288 q 92 294 88 308 q 84 322 84 337 q 84 381 110 417 q 136 454 173 454 q 209 454 227 436 q 234 428 237 406 q 240 383 244 383 q 247 383 278 408 q 347 464 409 464 l 421 464 q 457 464 485 437 q 513 410 513 369 l 513 356 q 513 337 495 249 q 476 161 476 124 q 476 87 486 73 q 496 58 496 52 q 496 45 485 39 q 451 17 396 17 q 376 17 362 39 q 347 61 347 90 q 347 119 363 210 q 379 300 379 327 z"},"h":{"x_min":0,"x_max":558,"ha":558,"o":"m 166 33 q 148 0 100 0 q 51 0 51 49 q 51 68 78 176 q 105 284 109 302 q 156 533 156 553 q 156 573 147 598 q 138 623 138 634 q 138 659 167 681 q 197 704 234 704 l 248 704 q 275 704 285 693 q 294 682 294 662 q 294 642 271 549 q 247 457 247 444 q 247 421 264 421 q 265 421 309 439 q 354 457 392 457 q 431 457 456 435 q 492 403 492 347 l 492 332 q 492 312 483 261 q 475 209 464 133 q 454 56 454 47 q 454 38 434 25 q 414 12 385 12 q 357 12 345 31 q 333 51 333 86 q 333 122 351 205 q 369 289 369 317 q 369 346 357 357 q 344 368 329 368 q 313 368 290 349 q 224 294 187 103 q 177 53 166 33 z"},"z":{"x_min":0,"x_max":475,"ha":475,"o":"m 367 459 l 438 468 q 463 468 463 443 q 463 418 438 383 q 413 347 305 242 q 197 137 197 113 q 197 85 285 85 q 312 85 345 102 q 378 118 401 118 q 420 118 420 92 q 420 39 394 17 q 368 -4 315 -4 l 302 -4 q 261 -4 203 4 q 145 13 123 13 q 100 13 71 9 q 42 4 41 4 q 16 4 16 25 l 16 37 q 16 68 156 208 q 295 347 295 367 q 295 377 243 377 q 190 377 150 363 q 110 349 103 349 q 82 349 82 386 q 82 423 105 447 q 128 470 174 470 l 187 470 q 214 470 275 465 q 335 459 367 459 z"},"B":{"x_min":0,"x_max":623,"ha":623,"o":"m 429 217 l 429 237 q 429 266 405 288 q 380 310 342 310 l 334 311 l 321 312 l 301 312 q 260 312 249 283 q 209 179 209 107 l 209 104 q 209 86 256 86 l 260 86 q 338 86 384 124 q 429 161 429 217 z m 459 523 l 459 530 q 459 561 439 579 q 419 597 391 597 l 384 598 l 359 598 q 321 598 308 569 q 302 554 285 484 q 269 414 269 411 q 269 398 282 398 l 301 398 l 305 398 l 315 399 q 319 399 322 399 q 384 399 421 437 q 459 475 459 523 z m 593 542 q 593 490 556 445 q 537 423 520 412 q 502 400 480 389 q 458 377 458 375 q 458 373 489 352 q 520 332 539 302 q 558 272 558 222 q 558 172 533 127 q 463 0 225 0 l 65 0 q 22 0 22 22 q 22 29 57 70 q 77 94 88 138 q 173 457 173 566 q 173 584 163 606 q 153 629 153 633 q 153 664 187 669 q 248 679 391 679 l 416 679 q 501 679 547 646 q 593 612 593 554 z"},"K":{"x_min":0,"x_max":662,"ha":662,"o":"m 234 117 l 244 58 q 244 28 218 15 q 193 3 135 3 q 77 3 64 9 q 51 15 51 32 q 51 49 73 80 q 95 111 108 171 q 177 475 177 560 q 177 572 169 595 q 161 619 161 630 q 161 656 184 668 q 207 679 298 679 l 316 679 q 366 679 366 646 q 366 631 346 600 q 326 569 315 542 q 290 477 290 422 q 290 411 299 411 q 309 411 320 418 q 369 450 453 544 q 494 590 504 623 q 514 656 519 661 q 537 677 641 677 q 688 677 688 655 q 688 638 645 608 q 602 578 581 558 q 496 480 457 438 q 418 396 418 374 q 418 353 472 245 q 525 137 557 91 q 588 46 588 39 q 588 16 574 8 q 561 0 490 0 l 471 0 q 428 0 414 20 q 405 32 398 76 q 391 121 369 170 q 315 292 285 292 q 270 292 252 238 q 234 185 234 117 z"},"R":{"x_min":0,"x_max":642,"ha":642,"o":"m 278 369 l 295 369 l 299 370 q 374 370 422 410 q 471 450 471 512 l 471 523 q 471 559 448 577 q 424 596 388 596 l 376 596 q 330 596 316 572 q 305 553 287 469 l 284 458 q 282 448 279 437 q 273 413 271 407 q 270 401 268 395 q 266 389 266 385 l 266 382 l 267 379 q 267 369 278 369 z m 455 299 q 455 253 501 146 q 514 117 539 87 q 564 56 564 34 q 564 3 512 3 l 484 3 q 434 3 420 21 q 406 40 375 130 q 344 220 336 233 q 313 276 288 276 q 264 276 245 242 q 227 208 227 163 q 227 117 232 84 q 237 51 237 51 q 237 25 205 12 q 187 4 127 4 q 67 4 55 12 q 43 20 43 42 q 43 64 73 100 q 87 117 99 165 q 176 481 176 591 q 176 601 173 616 l 170 627 q 167 641 167 646 q 167 671 195 677 q 224 683 298 683 l 328 684 l 372 684 q 489 684 541 649 q 599 610 599 528 q 599 429 498 355 q 455 325 455 299 z"},"T":{"x_min":0,"x_max":580,"ha":580,"o":"m 370 52 q 370 4 271 4 l 213 4 q 175 4 161 10 q 146 16 146 34 q 146 42 184 91 q 204 117 220 176 q 288 432 288 539 q 288 576 254 576 q 220 576 176 553 q 132 530 120 530 q 109 530 109 548 q 109 589 125 625 q 141 662 154 668 q 179 680 365 680 l 392 681 l 529 682 q 543 682 556 683 l 594 684 q 622 684 622 651 l 622 640 q 622 582 604 551 q 597 539 580 539 q 578 539 541 561 q 504 583 470 583 q 437 583 425 547 q 424 543 385 353 q 345 162 345 136 q 345 110 358 86 q 370 62 370 52 z"},"P":{"x_min":0,"x_max":597,"ha":597,"o":"m 291 350 l 299 350 l 303 351 q 369 351 411 385 q 432 402 449 436 q 466 470 466 507 l 466 511 q 466 551 444 573 q 421 595 384 595 l 364 595 q 356 594 353 594 q 325 594 314 568 q 314 567 303 523 q 291 479 287 459 q 283 438 273 403 q 264 367 264 365 l 264 362 q 264 350 291 350 z m 285 264 q 257 244 238 213 q 218 183 218 159 q 218 135 231 104 q 244 72 244 68 q 244 32 197 13 q 171 3 97 3 l 63 3 q 26 3 26 34 q 26 52 49 85 q 72 119 82 153 q 91 188 108 265 q 124 343 147 447 q 170 550 170 568 q 170 591 165 610 q 159 628 159 633 q 159 659 191 666 q 254 678 412 678 l 423 678 q 512 678 559 638 q 606 598 606 535 l 606 523 q 606 428 534 359 q 466 295 358 281 q 296 273 285 264 z"},"|":{"x_min":0,"x_max":388,"ha":388,"o":"m 259 197 l 258 145 l 257 125 l 257 114 l 255 31 l 254 21 l 252 -74 q 252 -172 248 -187 q 244 -201 219 -201 l 188 -201 q 156 -201 156 -171 l 156 -151 l 156 -141 l 159 -36 l 163 110 l 164 141 l 164 151 l 167 276 l 171 421 l 172 452 l 172 462 l 175 587 l 176 619 l 177 629 l 178 671 q 178 747 199 747 l 250 747 q 272 747 272 717 l 272 707 l 272 696 l 268 519 l 268 508 l 266 425 l 265 415 l 264 373 l 264 363 l 263 332 l 261 259 z"},"t":{"x_min":0,"x_max":361,"ha":361,"o":"m 252 607 l 267 607 q 289 607 289 574 q 289 569 287 551 q 284 533 284 513 q 284 487 323 474 q 362 461 362 446 q 362 414 311 393 q 260 373 249 350 q 233 316 219 250 q 204 184 204 154 q 204 124 215 113 q 225 102 256 102 q 287 102 294 97 q 301 91 301 73 q 301 40 272 25 q 222 -2 173 -2 l 164 -2 q 127 -2 101 25 q 75 52 75 91 l 75 101 q 75 131 97 231 q 119 331 119 358 q 119 373 97 385 q 76 397 76 421 q 76 446 86 454 q 96 462 119 468 q 142 473 148 482 q 154 490 166 530 q 178 570 199 589 q 219 607 252 607 z"},"M":{"x_min":0,"x_max":853,"ha":853,"o":"m 737 24 q 714 15 676 15 q 638 15 616 26 q 594 37 594 51 q 594 57 610 112 q 625 167 651 296 q 676 425 676 454 q 676 483 671 483 q 666 483 567 311 l 443 94 q 427 68 406 53 q 386 39 367 39 q 339 39 331 79 l 317 188 q 281 476 269 476 q 250 476 201 262 l 183 183 q 178 158 172 132 q 167 106 161 75 q 155 44 155 43 q 140 18 95 18 q 50 18 37 29 q 24 41 24 62 l 32 78 l 44 93 l 55 112 q 87 169 159 476 q 174 540 174 575 l 172 597 l 167 637 q 167 657 181 665 q 195 672 240 672 q 243 672 246 672 q 334 672 356 633 q 373 604 395 443 q 417 282 422 261 l 429 244 q 443 244 538 416 q 633 587 659 617 q 684 647 718 658 q 752 669 815 669 q 854 669 854 648 q 854 645 834 594 q 815 544 804 486 q 751 205 751 133 q 751 121 761 97 q 771 73 771 59 q 771 38 737 24 z"},"g":{"x_min":0,"x_max":564,"ha":564,"o":"m 386 337 l 386 350 q 386 375 377 388 q 361 410 330 410 l 318 410 q 274 410 231 346 q 188 281 188 205 l 188 196 q 188 163 202 137 q 215 112 243 112 l 253 112 q 271 112 295 127 q 320 143 337 169 q 385 244 385 317 l 385 321 l 386 325 z m 537 464 q 537 451 504 339 q 471 227 464 189 q 457 151 448 55 q 439 -42 417 -86 q 388 -144 327 -175 q 265 -207 200 -207 l 185 -207 q 117 -207 69 -180 q 21 -153 21 -118 q 21 -93 31 -81 q 42 -68 48 -68 q 84 -68 135 -91 q 187 -114 205 -114 q 253 -114 290 -77 q 313 -54 327 -20 q 341 15 341 26 q 341 37 337 37 q 333 37 314 30 l 294 22 q 257 10 219 10 q 152 10 111 61 q 70 112 70 205 q 70 327 148 419 q 181 459 220 478 q 258 496 310 496 l 336 496 q 362 496 391 483 q 420 471 427 471 l 448 483 q 464 492 487 492 q 537 492 537 464 z"},"j":{"x_min":0,"x_max":304,"ha":304,"o":"m -9 -210 l -26 -210 q -54 -210 -68 -198 q -83 -187 -83 -180 l -83 -173 q -83 -161 -68 -143 q -54 -125 -19 -118 q 26 -110 48 -58 q 62 -24 95 139 q 128 303 128 330 q 128 357 112 383 q 96 408 96 427 q 96 446 121 456 q 171 476 218 476 l 227 476 q 246 476 256 461 q 267 445 267 418 q 267 390 249 308 q 231 225 227 204 q 193 15 165 -54 q 137 -124 89 -167 q 41 -210 -9 -210 z m 170 612 l 172 628 q 172 653 192 673 q 213 694 250 694 l 267 694 q 317 694 317 650 l 317 645 l 316 643 q 316 607 297 585 q 278 563 251 563 q 243 561 240 561 l 220 561 q 215 562 213 562 q 195 562 183 573 q 170 583 170 605 z"},"i":{"x_min":0,"x_max":304,"ha":304,"o":"m 201 475 l 218 475 q 252 475 252 438 q 252 417 226 302 q 199 187 199 156 q 199 126 216 111 q 232 96 232 75 q 232 40 195 20 q 157 0 95 0 l 88 0 q 51 0 51 47 l 51 60 q 51 77 82 187 q 112 297 112 327 q 112 357 98 375 q 84 393 84 408 q 84 475 201 475 z m 214 559 l 195 561 q 181 561 168 571 q 156 581 156 600 l 156 612 q 156 645 175 667 q 194 689 219 689 l 229 691 l 243 692 l 248 692 l 250 691 l 255 691 l 265 690 q 301 690 301 659 l 303 648 l 303 641 l 302 639 l 302 634 q 301 627 301 625 q 301 596 280 578 q 259 561 235 561 q 230 560 228 560 l 216 559 z"},"y":{"x_min":0,"x_max":503,"ha":503,"o":"m 7 -177 q 7 -155 63 -125 q 120 -94 148 -57 q 176 -21 176 33 q 176 55 157 118 q 138 182 123 250 q 108 318 104 328 q 78 393 78 406 q 78 432 105 447 q 132 461 163 461 q 204 461 219 416 q 233 370 246 263 q 258 156 262 156 q 285 156 334 266 q 355 312 373 376 q 391 441 393 444 q 412 467 458 467 q 492 467 492 443 q 492 401 417 241 q 343 81 279 -14 q 215 -110 158 -158 q 102 -206 54 -206 q 7 -206 7 -177 z"},"@":{"x_min":0,"x_max":793,"ha":793,"o":"m 373 175 l 378 175 q 419 175 462 243 q 504 312 504 382 l 504 386 q 504 423 465 423 l 459 423 q 441 423 418 406 q 395 390 378 361 q 338 293 338 242 l 338 221 q 338 200 350 187 q 361 175 373 175 z m 771 381 q 771 343 755 294 q 739 246 706 204 q 673 163 635 146 q 597 128 565 128 q 534 128 515 138 l 499 150 q 479 167 476 167 l 460 162 l 441 152 l 419 142 q 384 127 348 127 q 312 127 282 157 q 252 188 252 239 q 252 291 275 337 q 298 383 332 410 q 366 436 392 442 q 419 447 470 447 q 521 447 542 449 q 562 452 567 452 l 581 444 q 595 432 595 415 q 595 397 582 333 q 568 270 568 235 q 568 201 595 201 q 609 201 628 216 q 664 244 681 291 q 697 335 697 377 q 697 379 697 380 q 697 480 627 542 q 590 575 549 585 q 508 595 456 595 q 404 595 346 569 q 288 542 242 490 q 196 438 175 377 q 153 316 153 236 q 153 188 177 137 q 223 34 330 4 q 375 -8 423 -8 q 472 -8 515 3 l 538 11 q 575 22 582 22 q 608 22 608 3 q 608 -15 536 -38 q 464 -60 393 -60 q 247 -60 158 32 q 115 76 95 135 q 76 194 76 263 q 76 332 107 409 q 138 486 198 545 q 257 604 329 633 q 401 661 470 661 q 602 661 681 595 q 722 561 746 510 q 771 458 771 409 z"},".":{"x_min":0,"x_max":287,"ha":287,"o":"m 201 94 l 201 84 q 201 43 171 13 q 152 -5 114 -5 l 104 -5 q 75 -5 62 6 q 49 17 49 33 l 47 45 l 47 56 q 47 97 79 128 q 96 146 136 146 l 139 146 q 173 146 191 129 q 199 123 199 106 z"},"p":{"x_min":0,"x_max":551,"ha":551,"o":"m 251 78 l 259 78 l 263 79 q 279 79 303 94 q 327 110 353 153 q 395 223 395 300 l 395 317 q 395 354 380 372 q 365 390 343 390 l 340 390 q 290 390 252 320 q 203 227 203 129 q 203 106 215 92 q 228 78 251 78 z m 149 -62 l 157 -121 q 157 -165 131 -191 q 104 -217 57 -217 q 10 -217 -4 -207 q -18 -197 -18 -185 q -18 -173 -4 -140 q 24 -72 67 118 q 111 308 111 331 q 111 354 107 377 q 104 401 104 404 q 104 425 123 438 q 159 461 211 461 q 224 461 234 451 q 245 440 254 440 q 264 440 301 460 q 339 479 376 479 l 387 479 q 443 479 482 434 q 521 390 521 323 l 521 311 q 521 267 495 202 q 444 74 340 27 q 296 8 243 8 q 191 8 170 -5 q 149 -19 149 -62 z"},"X":{"x_min":0,"x_max":640,"ha":640,"o":"m 177 571 q 142 615 142 639 q 142 663 167 670 q 191 678 297 678 q 334 678 342 670 q 349 662 349 646 l 345 635 l 341 624 q 336 609 336 598 q 336 556 371 479 q 378 463 387 463 q 392 463 447 529 q 501 595 501 621 l 500 644 q 500 669 534 675 q 560 679 645 679 q 675 679 675 667 q 675 644 634 610 q 593 577 568 548 q 471 436 451 406 q 430 375 430 355 q 430 308 508 144 q 520 119 543 93 q 566 67 566 51 q 566 18 526 7 q 502 1 394 1 q 354 1 354 27 q 354 34 361 53 q 367 72 367 92 q 367 152 325 230 l 317 240 q 291 240 216 129 q 186 84 186 36 q 186 10 151 5 q 131 2 42 2 q 7 2 7 22 q 7 42 47 71 q 86 101 113 130 q 273 311 273 354 q 273 364 211 508 q 193 552 177 571 z"},"*":{"x_min":0,"x_max":462,"ha":462,"o":"m 330 400 l 289 375 l 285 375 l 280 376 l 274 379 q 267 381 247 381 q 227 381 220 392 q 212 402 189 402 q 147 402 147 423 q 147 449 170 470 q 193 491 193 507 q 193 511 181 519 q 144 542 144 577 q 144 611 177 611 q 190 611 225 589 q 260 566 262 566 q 269 566 273 612 q 276 657 282 667 q 294 688 330 688 q 355 688 355 656 q 355 644 345 611 q 334 578 334 577 q 334 566 345 566 q 349 566 377 581 q 406 595 416 595 q 454 595 454 572 q 454 550 434 527 q 428 520 389 503 q 375 497 375 488 q 375 479 383 462 q 391 444 391 425 q 391 395 362 395 q 333 400 330 400 z"},"Y":{"x_min":0,"x_max":605,"ha":605,"o":"m 264 679 q 317 679 317 643 q 317 642 313 626 q 309 610 309 596 q 309 532 349 414 q 354 399 358 399 q 377 399 447 519 q 488 590 493 604 q 499 617 501 636 q 503 655 514 666 q 525 677 590 677 q 654 677 654 653 q 654 636 600 588 q 573 564 528 498 q 426 346 407 312 q 359 227 359 123 q 359 107 370 82 q 381 57 381 54 q 381 32 358 18 q 334 3 299 3 l 270 3 l 256 3 l 202 4 q 162 4 162 29 q 162 50 184 76 q 206 102 214 122 q 243 198 243 270 q 243 342 186 506 q 169 554 143 586 q 116 617 116 637 q 116 656 138 666 q 171 679 251 679 z"},"c":{"x_min":0,"x_max":456,"ha":456,"o":"m 228 -2 l 218 -2 q 135 -2 88 44 q 42 92 42 162 q 42 292 122 380 q 203 469 319 469 l 330 469 q 384 469 417 456 q 450 442 450 419 l 450 412 q 450 387 432 367 q 414 348 400 348 q 386 348 354 368 q 323 389 295 389 q 247 389 207 329 q 168 270 168 186 q 168 141 192 114 q 216 86 267 86 q 289 86 322 100 q 354 113 377 113 q 400 113 400 87 q 400 54 344 26 q 287 -2 228 -2 z"},"!":{"x_min":0,"x_max":325,"ha":325,"o":"m 206 95 l 206 80 q 206 42 182 19 q 158 -5 123 -5 l 108 -5 q 86 -5 72 5 q 57 16 57 33 l 56 37 l 56 57 q 57 62 57 64 q 57 93 86 122 q 104 140 139 140 l 154 140 q 176 140 191 129 q 206 118 206 95 z m 317 667 l 317 662 q 317 654 292 537 q 266 419 209 256 q 199 228 186 216 q 173 205 151 205 l 146 205 q 123 205 123 226 l 124 231 l 124 236 q 124 237 127 266 l 130 289 l 131 295 l 134 319 l 135 326 l 138 350 l 146 415 q 150 437 162 527 q 173 618 182 644 q 191 670 209 678 q 227 687 262 687 l 268 687 q 317 687 317 667 z"},"/":{"x_min":0,"x_max":412,"ha":412,"o":"m 430 706 q 466 706 466 695 q 466 685 451 657 q 325 426 235 252 q 146 78 91 -20 q 62 -72 27 -72 l 19 -72 q -19 -72 -19 -63 q -19 -53 6 -6 q 351 646 365 669 q 386 706 421 706 z"},"[":{"x_min":0,"x_max":375,"ha":375,"o":"m 220 -166 l 116 -166 q 70 -166 56 -161 q 42 -157 42 -134 l 42 -124 q 42 -99 115 268 q 188 634 195 659 q 202 684 217 695 q 231 706 282 706 l 318 707 q 354 708 365 708 l 400 708 q 425 708 425 700 q 425 652 364 641 q 320 632 309 625 q 297 619 288 594 q 279 569 220 271 q 160 -26 160 -47 q 160 -67 169 -77 q 178 -87 204 -94 q 229 -100 238 -105 q 256 -116 256 -143 q 256 -166 220 -166 z"},"6":{"x_min":0,"x_max":550,"ha":550,"o":"m 374 232 q 375 244 375 244 l 375 268 q 375 304 356 325 q 337 346 309 346 l 305 346 q 255 346 222 295 q 189 244 189 174 l 189 163 q 189 122 207 97 q 226 72 254 72 l 262 72 q 302 72 338 124 q 374 176 374 232 z m 284 413 l 332 418 q 369 418 402 402 q 495 358 495 234 q 495 188 477 143 q 440 49 361 12 q 316 -9 273 -9 l 261 -9 q 219 -9 182 8 q 110 40 81 125 q 65 169 65 224 l 65 236 q 65 311 92 384 q 119 457 171 519 q 223 582 294 621 q 364 661 427 661 l 450 661 q 520 661 520 617 q 520 600 495 590 q 486 587 455 582 q 371 569 337 546 q 303 523 280 491 q 256 459 256 432 q 256 413 284 413 z"},"r":{"x_min":0,"x_max":407,"ha":407,"o":"m 412 404 q 412 380 390 363 q 369 346 331 346 q 293 346 277 333 q 260 320 240 281 q 220 241 199 140 q 179 39 163 20 q 146 1 87 1 q 43 1 43 29 q 43 45 73 150 q 102 254 102 308 q 102 317 94 335 q 87 353 87 383 q 87 414 115 438 q 144 462 186 462 l 193 462 q 223 462 237 446 q 242 440 245 415 q 249 389 259 389 q 264 389 280 405 q 330 460 379 460 q 412 460 412 411 z"},"2":{"x_min":0,"x_max":547,"ha":547,"o":"m 284 110 l 397 115 l 431 118 q 462 118 462 92 q 462 41 427 18 q 403 2 354 2 l 339 2 l 325 2 l 294 3 q 264 4 249 4 l 171 6 l 156 6 q 140 7 108 7 q 75 7 55 12 q 35 18 35 41 q 35 63 75 108 q 90 126 198 223 q 306 320 335 357 q 390 426 390 485 q 390 521 366 540 q 342 560 307 560 q 272 560 226 520 q 180 480 151 480 q 121 480 121 507 q 121 565 176 608 q 200 626 245 643 q 290 659 334 659 l 350 659 q 426 659 473 615 q 521 571 521 498 q 521 427 458 350 q 427 312 322 226 q 217 140 217 126 q 217 110 284 110 z"},"{":{"x_min":0,"x_max":386,"ha":386,"o":"m 234 -172 q 94 -172 94 -47 q 94 -15 113 64 q 132 144 132 175 q 132 206 110 225 q 68 262 68 267 q 68 295 108 311 q 149 328 164 359 q 179 390 190 491 q 202 593 228 632 q 281 715 397 715 q 425 715 425 701 q 425 677 379 646 q 334 614 324 599 q 305 570 293 479 q 280 387 266 356 q 251 325 234 311 q 218 297 198 287 q 179 277 179 274 q 179 271 198 255 q 216 238 225 219 q 233 199 233 169 q 233 139 219 71 q 204 3 204 -29 q 204 -61 236 -94 q 268 -127 268 -150 q 268 -172 246 -172 z"},"9":{"x_min":0,"x_max":550,"ha":550,"o":"m 284 313 l 295 313 q 343 313 374 363 q 404 413 404 479 l 404 495 q 404 537 386 562 q 368 587 340 587 l 333 587 q 294 587 258 535 q 222 483 222 427 l 222 422 l 221 418 l 221 407 l 221 398 q 221 359 240 336 q 258 313 284 313 z m 291 244 q 276 243 251 243 q 226 243 194 259 q 103 306 103 430 q 104 475 121 520 q 139 565 170 599 q 235 668 329 668 l 341 668 q 375 668 411 652 q 484 622 512 537 q 528 489 528 438 l 528 414 q 528 338 498 263 q 468 188 417 128 q 366 69 296 32 q 227 -5 161 -5 l 139 -5 q 105 -5 88 8 q 71 21 71 39 q 71 57 89 65 q 106 73 168 81 q 272 95 319 173 q 335 200 335 224 q 335 244 291 244 z"}," ":{"x_min":0,"x_max":321,"ha":321,"o":""},"I":{"x_min":0,"x_max":358,"ha":358,"o":"m 264 50 q 264 1 190 1 l 161 1 l 151 2 l 132 2 q 64 2 49 9 q 33 16 33 33 q 33 50 65 89 q 98 127 110 179 q 177 451 177 542 q 177 567 161 596 q 146 625 146 634 q 146 662 183 673 q 205 680 289 680 l 338 681 q 381 681 381 654 q 381 642 353 603 q 325 564 311 517 q 310 511 298 457 l 296 447 q 295 443 292 426 l 288 405 l 255 253 q 237 168 237 141 q 237 114 250 83 q 264 52 264 50 z"},"H":{"x_min":0,"x_max":721,"ha":721,"o":"m 698 670 q 751 670 751 650 q 751 630 729 603 q 707 577 695 539 q 683 502 647 331 q 612 160 612 143 q 612 125 622 100 q 632 74 632 69 q 632 37 591 24 q 573 19 508 19 q 442 19 427 24 q 412 30 412 53 q 412 56 430 87 q 448 118 457 145 q 488 241 488 286 q 488 313 466 319 q 455 322 406 322 q 278 322 256 296 q 244 281 231 226 q 219 171 219 141 q 219 110 222 94 l 226 79 q 230 62 230 51 q 230 30 201 19 q 172 7 64 7 q 26 7 26 38 q 26 52 52 81 q 78 109 89 150 q 101 190 133 358 q 165 526 165 545 q 165 564 155 583 q 145 603 145 605 q 145 641 177 654 q 201 664 270 664 q 338 664 349 657 q 360 651 360 640 q 360 628 342 598 q 324 567 316 544 q 291 465 291 431 q 291 396 312 392 q 327 388 416 388 q 505 388 523 410 q 533 421 544 460 q 555 499 555 536 q 555 573 551 591 l 542 619 q 542 654 574 662 q 605 670 698 670 z"},"4":{"x_min":0,"x_max":553,"ha":553,"o":"m 181 252 l 199 252 l 203 253 l 215 253 q 296 253 304 266 q 305 267 334 383 q 363 499 363 510 l 363 512 l 362 513 l 278 414 q 145 256 145 254 q 145 252 181 252 z m 283 -1 q 239 -1 239 59 q 239 70 244 86 q 250 103 250 105 q 250 131 198 148 q 186 152 139 155 q 92 158 81 166 q 57 180 57 214 q 57 247 90 291 q 213 454 363 619 q 408 668 465 668 l 475 668 q 510 668 510 646 l 510 637 q 510 619 479 492 q 449 366 449 333 q 449 300 469 269 q 488 237 488 228 q 488 227 470 190 q 452 153 446 147 q 439 140 430 134 q 420 127 418 123 q 416 118 412 79 q 409 39 391 19 q 374 -1 292 -1 z"},"~":{"x_min":0,"x_max":574,"ha":574,"o":"m 198 368 l 210 368 q 249 368 315 331 q 382 294 409 294 q 436 294 465 329 q 494 363 510 363 q 541 363 541 332 l 541 326 q 541 288 496 246 q 452 204 406 204 l 399 204 q 359 204 290 241 q 222 278 195 278 q 168 278 139 243 q 109 208 94 208 q 62 208 62 247 q 62 286 108 327 q 154 368 198 368 z"},"D":{"x_min":0,"x_max":697,"ha":697,"o":"m 529 401 l 529 431 q 529 509 491 552 q 452 595 389 595 l 375 595 q 325 595 315 558 q 312 546 308 525 q 304 503 295 462 l 293 449 l 278 380 q 250 250 235 188 q 219 125 219 110 l 219 105 q 219 88 263 88 l 283 88 q 382 88 453 175 q 487 217 508 283 q 529 348 529 401 z m 668 443 l 668 431 q 668 330 630 244 q 592 158 530 103 q 468 48 391 25 q 314 1 208 1 l 185 0 l 162 0 l 151 1 l 118 1 q 25 1 25 16 l 25 24 q 25 26 63 81 q 81 105 98 168 q 116 232 147 383 q 179 535 179 558 q 179 582 168 607 q 158 632 158 636 q 158 661 186 668 q 224 679 342 679 l 377 681 l 401 681 q 592 681 648 545 q 668 497 668 443 z"},"^":{"x_min":0,"x_max":566,"ha":566,"o":"m 313 675 l 330 675 q 357 675 381 633 q 395 609 461 466 q 528 322 528 313 q 528 304 489 304 q 449 304 429 333 q 408 362 364 463 q 320 563 312 563 l 242 440 l 222 403 q 195 355 188 344 q 158 304 126 304 l 118 304 q 79 304 79 313 q 79 321 114 381 q 149 440 207 544 q 264 648 267 652 q 281 675 313 675 z"},"0":{"x_min":0,"x_max":551,"ha":551,"o":"m 410 473 l 410 492 q 410 537 394 561 q 378 584 351 584 q 261 584 205 334 q 186 246 186 198 l 186 167 q 186 121 201 97 q 217 74 240 74 l 245 74 q 274 74 302 104 q 330 133 354 199 q 379 264 394 347 q 410 431 410 473 z m 63 183 l 63 222 q 63 287 89 378 q 114 469 156 533 q 199 598 253 633 q 308 668 364 668 l 373 668 q 411 668 444 651 q 533 606 533 458 l 533 448 q 532 370 506 278 q 452 93 341 24 q 287 -9 232 -9 l 223 -9 q 150 -9 106 45 q 63 99 63 183 z"},"F":{"x_min":0,"x_max":552,"ha":552,"o":"m 243 36 q 243 2 185 2 l 170 2 l 155 2 q 86 2 69 13 q 41 30 41 52 q 41 73 65 102 q 90 130 100 165 q 125 251 150 385 q 176 518 176 549 q 176 580 168 602 q 159 623 159 628 q 159 657 194 664 q 264 676 451 676 l 526 676 q 561 676 574 664 q 587 652 587 622 q 587 547 561 547 q 551 547 527 561 q 503 574 497 576 q 450 595 387 595 q 342 595 322 562 q 283 496 283 430 q 283 408 341 408 q 362 408 400 421 q 437 435 450 435 q 478 435 478 395 q 478 341 457 293 q 443 263 422 263 q 400 263 379 278 q 357 293 336 293 q 278 293 257 262 q 229 219 229 111 q 229 96 236 68 q 243 40 243 36 z"},"`":{"x_min":0,"x_max":399,"ha":399,"o":"m 341 562 l 341 553 q 341 541 321 541 l 310 541 q 290 541 255 568 q 153 647 153 678 l 153 685 q 153 708 197 708 l 205 708 q 246 708 271 680 q 341 599 341 562 z"},"k":{"x_min":0,"x_max":534,"ha":534,"o":"m 155 587 l 146 646 q 146 677 169 691 q 192 705 255 705 l 269 705 q 295 705 295 667 l 293 651 q 290 629 277 578 q 229 383 229 339 q 229 323 238 323 q 253 323 306 379 q 358 436 384 454 q 411 473 457 473 q 504 473 504 453 q 504 438 425 373 q 347 307 347 275 q 347 243 402 130 q 416 102 440 78 q 465 54 465 45 q 465 35 452 28 q 419 10 360 10 q 334 10 318 35 q 301 61 276 132 q 251 202 234 202 q 206 202 184 104 q 171 46 164 35 q 142 3 92 3 q 69 3 61 10 q 52 17 52 33 q 52 49 74 156 q 96 262 111 344 q 125 425 140 492 q 155 558 155 587 z"},"u":{"x_min":0,"x_max":560,"ha":560,"o":"m 191 143 q 191 89 236 89 q 249 89 275 105 q 302 122 324 158 q 360 217 391 351 q 401 400 407 410 q 428 450 457 450 q 486 450 502 436 q 518 421 518 402 q 518 400 502 319 q 486 238 486 209 q 486 181 492 166 q 498 151 498 127 q 498 77 467 46 q 437 16 389 16 q 364 16 354 24 q 344 33 339 54 q 333 75 329 75 q 327 75 269 44 q 211 12 167 12 l 156 12 q 115 12 89 42 q 63 73 63 114 l 63 127 q 63 148 83 243 q 104 338 104 356 q 104 375 94 395 q 84 415 84 421 q 84 438 103 443 q 145 456 187 456 q 208 456 218 441 q 229 425 229 392 q 229 358 210 264 q 191 170 191 143 z"},"]":{"x_min":0,"x_max":375,"ha":375,"o":"m 27 -166 l 4 -166 q -23 -166 -23 -149 q -23 -107 46 -97 q 77 -92 90 -84 q 104 -75 112 -55 q 121 -35 181 265 q 241 565 241 595 q 241 626 193 638 q 145 650 145 683 q 145 708 179 708 l 283 708 q 340 708 350 702 q 361 696 361 680 l 361 670 q 361 639 284 263 q 208 -112 203 -125 q 191 -152 167 -159 q 143 -166 27 -166 z"},"U":{"x_min":0,"x_max":689,"ha":689,"o":"m 229 200 q 229 80 341 80 q 386 80 423 107 q 460 134 485 190 q 510 246 539 386 q 567 526 567 605 l 566 618 l 564 640 q 564 660 576 666 q 587 672 634 672 q 680 672 695 663 q 723 646 723 616 q 723 598 701 573 q 679 547 672 525 l 667 508 q 664 492 659 473 l 639 382 q 596 183 560 123 q 524 63 461 29 q 398 -6 323 -6 l 302 -6 q 207 -6 151 43 q 95 92 95 181 q 95 235 125 376 q 155 517 155 535 q 155 554 142 576 q 129 599 129 604 q 129 633 154 654 q 178 675 208 675 l 226 675 l 244 675 q 294 675 314 670 q 335 666 335 648 q 335 641 315 603 q 296 565 286 525 q 229 292 229 200 z"},"o":{"x_min":0,"x_max":529,"ha":529,"o":"m 233 73 l 245 73 q 287 73 329 143 q 371 213 371 302 l 371 320 q 371 362 354 382 q 338 402 312 402 l 309 402 l 305 402 q 286 402 262 384 q 238 366 220 332 q 177 251 177 178 l 177 155 q 177 118 194 95 q 210 73 233 73 z m 332 478 l 347 478 q 417 478 459 435 q 501 393 501 315 l 501 308 q 501 252 479 195 q 456 138 416 94 q 375 49 323 24 q 270 -1 212 -1 l 204 -1 q 134 -1 90 40 q 46 82 46 159 l 47 167 q 47 218 69 277 q 91 336 131 380 q 171 423 224 450 q 276 478 332 478 z"},"N":{"x_min":0,"x_max":709,"ha":709,"o":"m 193 118 l 198 57 q 198 27 159 14 q 134 5 61 5 q 22 5 22 21 q 22 36 50 77 q 77 119 87 158 q 98 197 129 363 q 161 530 161 551 q 161 572 156 594 l 151 610 q 144 638 144 641 q 144 670 185 670 q 251 670 278 659 q 304 648 327 618 q 350 589 433 404 q 517 220 522 220 q 528 220 532 236 q 588 471 588 565 q 588 579 585 599 l 582 614 q 577 640 577 642 q 577 664 603 673 q 617 678 660 678 q 704 678 716 672 q 742 662 742 633 q 742 620 717 578 q 691 536 680 498 q 669 459 631 261 q 593 62 585 42 q 573 10 546 10 q 520 10 496 22 q 473 35 451 71 q 430 107 351 287 q 272 467 264 467 q 246 467 236 419 q 193 209 193 118 z"},"+":{"x_min":0,"x_max":574,"ha":574,"o":"m 448 238 q 413 236 402 236 q 347 236 344 229 q 340 222 333 144 q 327 66 324 55 q 318 39 271 39 l 252 39 q 238 39 238 68 l 244 141 q 250 207 250 214 q 250 227 201 227 l 164 226 q 146 225 136 225 l 118 224 l 100 224 q 72 224 72 239 l 72 247 q 72 298 84 307 q 96 317 188 317 l 215 318 q 234 319 247 319 q 259 319 261 332 q 262 336 265 370 q 275 495 282 503 q 289 511 341 511 q 364 511 364 490 l 352 336 q 352 325 373 326 q 395 326 409 327 q 423 327 436 328 q 450 328 459 328 l 478 329 l 505 330 q 531 330 531 312 q 531 255 517 247 q 504 238 448 238 z"},"G":{"x_min":0,"x_max":699,"ha":699,"o":"m 69 271 l 69 291 q 69 361 102 438 q 135 516 186 568 q 236 620 303 650 q 369 681 441 681 l 479 681 l 499 680 q 515 678 538 674 l 577 667 q 581 667 606 665 q 632 664 642 660 q 651 656 663 639 q 675 622 675 586 q 675 550 661 532 q 646 514 629 514 q 612 514 575 544 q 539 573 511 584 q 483 595 440 595 q 396 595 352 571 q 308 547 274 499 q 207 403 207 271 q 207 188 251 140 q 296 92 360 92 q 402 92 433 116 q 464 140 464 175 q 464 188 446 240 q 429 291 429 292 q 429 316 469 323 q 508 329 575 329 q 641 329 657 320 q 674 311 674 292 q 674 284 653 254 q 633 224 623 191 q 586 71 571 54 q 556 37 518 26 q 413 -2 348 -2 q 148 -2 89 158 q 69 211 69 271 z"},"q":{"x_min":0,"x_max":547,"ha":547,"o":"m 217 90 l 227 90 q 246 90 273 109 q 301 128 323 167 q 373 255 373 347 l 373 351 q 373 373 365 383 q 349 402 322 402 l 319 402 l 315 401 q 295 401 269 383 q 243 365 222 329 q 175 245 175 174 l 175 158 q 175 129 187 109 q 199 90 217 90 z m 476 476 q 519 476 519 442 q 519 426 500 360 q 480 295 446 124 q 412 -47 412 -70 q 412 -93 421 -116 q 431 -139 431 -148 q 431 -178 412 -193 q 394 -208 339 -208 l 305 -208 q 277 -208 266 -201 q 254 -193 254 -175 q 254 -156 283 -86 q 312 -17 312 8 q 312 32 286 32 q 283 32 250 24 q 218 16 185 16 q 128 16 92 59 q 55 102 55 169 l 55 181 q 55 233 79 292 q 103 351 140 395 q 209 477 294 477 l 295 477 q 342 477 368 464 q 395 451 400 451 q 405 451 428 463 q 451 476 476 476 z"},"d":{"x_min":0,"x_max":559,"ha":559,"o":"m 216 88 l 223 88 q 238 88 265 104 q 292 121 312 153 q 366 244 366 321 l 367 329 l 368 345 q 368 370 354 382 q 341 395 318 395 l 311 395 q 288 395 264 376 q 239 358 221 328 q 173 247 173 171 l 173 151 q 173 122 185 105 q 198 88 216 88 z m 310 467 l 362 461 q 391 461 411 493 q 431 525 431 581 q 431 598 421 617 q 412 636 412 656 q 412 677 442 695 q 473 713 527 713 l 538 713 q 572 713 572 674 q 572 646 517 412 q 462 177 462 161 q 462 145 471 123 q 481 102 481 75 q 481 48 447 30 q 413 11 372 11 q 350 11 326 40 q 312 56 299 56 q 299 56 298 56 q 286 56 268 44 q 212 6 168 5 l 159 5 q 112 5 79 44 q 45 82 45 142 l 45 154 q 45 202 68 263 q 91 325 131 373 q 208 467 310 467 z"},"1":{"x_min":0,"x_max":540,"ha":540,"o":"m 392 48 q 392 26 350 13 q 309 0 242 0 l 222 0 q 149 0 121 17 q 109 24 109 34 l 109 42 q 109 64 155 102 q 201 140 213 174 q 225 208 246 322 q 268 436 268 476 q 268 502 231 521 q 182 548 182 564 q 182 587 218 603 q 342 657 399 657 l 407 657 q 429 657 429 634 q 429 612 415 548 q 400 484 373 340 q 347 196 347 174 q 347 151 369 115 q 392 78 392 48 z"},"5":{"x_min":0,"x_max":546,"ha":546,"o":"m 406 55 q 326 -19 195 -19 q 130 -19 81 3 q 31 25 31 66 q 31 84 47 100 q 63 116 86 116 q 108 116 145 91 q 182 65 221 65 q 281 65 320 110 q 359 155 359 211 q 359 267 316 297 q 282 320 206 320 l 191 319 q 177 319 164 319 q 125 319 125 358 q 125 379 156 488 q 188 596 201 616 q 214 637 237 643 q 260 650 296 650 q 331 650 347 649 l 378 648 q 399 648 439 652 l 468 656 q 489 658 497 658 l 511 658 q 540 658 540 636 q 540 615 525 589 q 510 562 496 555 q 471 543 378 543 q 285 543 270 531 q 255 519 242 485 q 229 450 229 438 q 229 419 271 419 q 272 419 273 419 q 314 419 357 405 q 487 363 487 230 q 487 186 467 139 q 446 91 406 55 z"}}}
